<?xml version="1.0" encoding="utf-8"?>
<!-- Generator: Adobe Illustrator 17.0.0, SVG Export Plug-In . SVG Version: 6.00 Build 0)  -->
<!DOCTYPE svg PUBLIC "-//W3C//DTD SVG 1.1//EN" "http://www.w3.org/Graphics/SVG/1.1/DTD/svg11.dtd">
<svg version="1.1" id="Layer_1" xmlns="http://www.w3.org/2000/svg" xmlns:xlink="http://www.w3.org/1999/xlink" x="0px" y="0px"
	 width="64.008px" height="64.008px" viewBox="0 0 64.008 64.008" enable-background="new 0 0 64.008 64.008" xml:space="preserve">
<path fill="#DC4929" d="M32.004,0C14.329,0,0,14.329,0,32.004s14.329,32.004,32.004,32.004s32.004-14.329,32.004-32.004
	S49.679,0,32.004,0z M51.394,27.059c-0.929,1.504-2.145,2.291-4.79,3.294c-0.071,4.152-0.858,7.804-2.288,10.811
	c-3.218,6.587-10.226,11.169-17.304,11.169c-7.723,0-13.586-4.94-13.586-11.312c0-6.157,4.862-11.025,12.013-12.027
	c-3.933-0.716-6.221-3.15-6.221-6.658c0-5.084,5.362-9.308,11.869-9.308c4.72,0,8.438,2.147,8.438,4.868
	c0,1.646-0.93,3.222-2.86,5.083c-1.287-3.794-4.29-6.515-7.078-6.515c-2.718,0-4.791,2.362-4.791,5.441
	c0,2.648,1.716,5.154,4.361,6.3c1.431-0.357,2.432-0.501,4.147-0.501c0.858,0,1.145,0,1.931,0.144
	c-1.001,1.933-2.359,2.863-4.219,2.863c-1.216,0-2.431-0.143-3.718-0.572c-4.862,1.288-7.58,4.367-7.58,8.448
	c0,5.083,4.291,9.021,9.939,9.021c7.937,0,13.014-6.086,13.085-15.536l-3.504,1.646c-1.501,0.716-3.074,1.575-4.075,2.291
	c-0.644,0.43-0.93,0.788-0.93,1.289c0,1.074,1.072,2.076,3.218,3.15c-1.001,0.931-2.359,1.575-3.433,1.575
	c-1.358,0-2.431-1.575-2.431-3.724c0-0.931,0.214-1.933,0.5-2.863c0.357-0.859,0.858-1.719,1.502-2.435
	c1.072-1.217,1.859-1.79,4.075-2.792l3.433-1.504c1.859-0.787,3.289-1.503,4.433-2.004c1.431-0.716,2.718-1.433,3.719-2.148
	c0.644-0.501,1.001-1.073,1.001-1.718c0-1.003-1.645-2.435-3.718-3.222c1.358-1.218,2.431-1.719,3.646-1.719
	c1.716,0,2.717,1.646,2.717,4.367C52.896,23.837,52.323,25.698,51.394,27.059z"/>
</svg>
