<?xml version="1.0" encoding="utf-8"?>
<!-- Generator: Adobe Illustrator 17.0.0, SVG Export Plug-In . SVG Version: 6.00 Build 0)  -->
<!DOCTYPE svg PUBLIC "-//W3C//DTD SVG 1.1//EN" "http://www.w3.org/Graphics/SVG/1.1/DTD/svg11.dtd">
<svg version="1.1" id="Layer_1" xmlns="http://www.w3.org/2000/svg" xmlns:xlink="http://www.w3.org/1999/xlink" x="0px" y="0px"
	 width="180.002px" height="41.325px" viewBox="0 0 180.002 41.325" enable-background="new 0 0 180.002 41.325"
	 xml:space="preserve">
<g id="Background_xA0_Image_1_">
</g>
<g id="Layer_2_xA0_Image_1_" opacity="0.302">
</g>
<g id="who_we_are_____what_we_do_____get_in_touch_1_" opacity="0.8">
</g>
<g id="eE" opacity="0.502">
	<g enable-background="new    ">
		<path fill="#FFFFFF" d="M90.447,20.777c-0.394,0.979-2.956,0.634-2.562-0.345c0.394-0.921,0.493-2.072,0.493-3.281
			c0-7.77-7.291-15.598-16.355-15.598c-4.335,0-8.178,1.669-11.035,4.489c13.498,3.108,22.07,15.022,22.07,23.426
			c0,6.158-4.434,11.856-12.907,11.856c-10.148,0-17.045-8.863-17.045-22.39c0-4.719,1.478-8.806,4.04-11.972
			c-0.985-0.058-1.872-0.114-2.857-0.114c-6.7,0-13.202,4.201-13.695,11.051c5.025,1.035,9.458,3.971,9.458,7.424
			c0,1.555-1.281,3.224-4.828,3.224c-5.321,0-7.291-5.353-7.39-9.497c-0.394-0.058-0.887-0.058-1.281-0.058
			c-5.518,0-8.769,1.67-12.316,3.396c-3.547,1.669-7.389,3.453-13.597,3.453c-4.138,0-6.7-0.748-10.641-2.763
			c-1.281-0.633,0.493-1.784,1.773-1.151c2.66,1.382,4.828,2.303,7.685,2.303c4.828,0,7.192-2.418,11.921-4.375
			c3.251-1.323,7.685-2.475,14.582-2.475c0.591,0,1.478,0.058,1.971,0.115C38.62,9.668,46.503,5.293,54.286,5.293
			c1.379,0,2.759,0.115,4.04,0.288c3.449-3.511,8.375-5.583,13.695-5.583c10.641,0,19.016,8.403,19.016,17.151
			C91.038,18.477,90.841,19.742,90.447,20.777z M40.494,19.57c0,2.878,1.675,7.425,4.828,7.425c1.675,0,2.069-0.921,2.069-1.67
			C47.391,22.734,44.14,20.548,40.494,19.57z M59.706,7.426c-2.463,2.993-3.941,7.021-3.941,11.511
			c0,11.972,5.813,20.836,14.385,20.836c6.503,0,8.178-4.72,8.178-10.303C78.328,21.065,71.727,10.016,59.706,7.426z"/>
		<path fill="#FFFFFF" d="M169.362,25.844c-6.208,0-10.05-1.784-13.597-3.453c-3.547-1.727-6.799-3.396-12.316-3.396
			c-0.394,0-0.887,0-1.28,0.058c-0.099,4.145-2.069,9.497-7.39,9.497c-3.547,0-4.828-1.669-4.828-3.224
			c0-3.453,4.434-6.389,9.459-7.424c-0.493-6.85-6.995-11.051-13.695-11.051c-0.985,0-1.872,0.057-2.857,0.114
			c2.562,3.166,4.04,7.253,4.04,11.972c0,13.526-6.897,22.39-17.045,22.39c-8.474,0-12.907-5.698-12.907-11.856
			c0-8.403,8.571-20.317,22.069-23.426c-2.856-2.82-6.699-4.489-11.034-4.489c-9.064,0-16.355,7.828-16.355,15.598
			c0,1.209,0.099,2.36,0.492,3.281c0.395,0.979-2.167,1.323-2.562,0.345c-0.394-1.035-0.591-2.302-0.591-3.626
			c0-8.748,8.375-17.151,19.016-17.151c5.32,0,10.246,2.072,13.694,5.583c1.281-0.173,2.661-0.288,4.04-0.288
			c7.783,0,15.666,4.375,16.355,12.202c0.492-0.058,1.379-0.115,1.971-0.115c6.896,0,11.33,1.151,14.581,2.475
			c4.729,1.957,7.095,4.375,11.922,4.375c2.857,0,5.025-0.921,7.686-2.303c1.28-0.633,3.054,0.519,1.773,1.151
			C176.061,25.096,173.499,25.844,169.362,25.844z M120.295,7.426c-12.021,2.59-18.621,13.641-18.621,22.044
			c0,5.583,1.675,10.303,8.178,10.303c8.571,0,14.385-8.864,14.385-20.836C124.237,14.447,122.758,10.419,120.295,7.426z
			 M132.611,25.324c0,0.749,0.395,1.67,2.069,1.67c3.153,0,4.828-4.547,4.828-7.425C135.863,20.548,132.611,22.734,132.611,25.324z"
			/>
	</g>
</g>
</svg>
