<?xml version="1.0" encoding="utf-8"?>
<!-- Generator: Adobe Illustrator 17.0.0, SVG Export Plug-In . SVG Version: 6.00 Build 0)  -->
<!DOCTYPE svg PUBLIC "-//W3C//DTD SVG 1.1//EN" "http://www.w3.org/Graphics/SVG/1.1/DTD/svg11.dtd">
<svg version="1.1" id="Layer_1" xmlns="http://www.w3.org/2000/svg" xmlns:xlink="http://www.w3.org/1999/xlink" x="0px" y="0px"
	 width="183.5px" height="74.255px" viewBox="0 0 183.5 74.255" enable-background="new 0 0 183.5 74.255" xml:space="preserve">
<g id="Background_xA0_Image_1_">
</g>
<g id="Layer_2_xA0_Image_1_">
</g>
<g id="symmetry">
	<text transform="matrix(1.0114 0 0 1 -2.593994e-04 47.5583)" fill="#FFFFFF" font-family="'CorpidCaps-Bold'" font-size="36">symmetry</text>
</g>
<g id="who_we_are_____what_we_do_____get_in_touch_1_">
</g>
<path opacity="0.25" fill="#FFFFFF" d="M71.644,1.98c12.862,0,24.044,7.685,29.63,18.913c0.626-0.177,1.265-0.315,1.918-0.406
	C97.378,8.35,85.425,0,71.644,0C57.65,0,45.532,8.606,39.823,21.049c0.606,0.197,1.194,0.44,1.768,0.712
	C47.023,10.061,58.452,1.98,71.644,1.98z"/>
<path opacity="0.25" fill="#FFFFFF" d="M101.689,52.51C96.255,64.201,84.83,72.274,71.644,72.274
	c-13.489,0-25.129-8.451-30.405-20.578c-0.579,0.256-1.178,0.465-1.789,0.646c5.537,12.904,17.88,21.913,32.193,21.913
	c14.118,0,26.322-8.763,31.966-21.385C102.956,52.798,102.318,52.667,101.689,52.51z"/>
</svg>
