<?xml version="1.0" encoding="utf-8"?>
<!-- Generator: Adobe Illustrator 17.0.0, SVG Export Plug-In . SVG Version: 6.00 Build 0)  -->
<!DOCTYPE svg PUBLIC "-//W3C//DTD SVG 1.1//EN" "http://www.w3.org/Graphics/SVG/1.1/DTD/svg11.dtd">
<svg version="1.1" id="Layer_1" xmlns="http://www.w3.org/2000/svg" xmlns:xlink="http://www.w3.org/1999/xlink" x="0px" y="0px"
	 width="183.5px" height="74.255px" viewBox="0 0 183.5 74.255" enable-background="new 0 0 183.5 74.255" xml:space="preserve">
<g id="Background_xA0_Image_1_">
</g>
<g id="Layer_2_xA0_Image_1_">
</g>
<g id="symmetry">
	<g enable-background="new    ">
		<path fill="#FFFFFF" d="M7.682,47.955c-1.784,0-3.677-0.216-5.57-0.685l0.583-3.923c1.638,0.54,3.422,0.827,5.061,0.827
			c2.293,0,3.386-0.972,3.386-2.52c0-1.584-1.274-2.304-3.422-3.131c-3.24-1.152-5.643-2.7-5.643-6.228
			c0-4.211,3.495-6.227,7.646-6.227c1.748,0,3.787,0.252,5.425,0.828l-0.874,3.636c-1.566-0.54-3.167-0.792-4.515-0.792
			c-1.857,0-2.622,1.008-2.622,2.268c0,1.188,0.874,1.799,2.439,2.412c3.24,1.296,6.663,2.556,6.663,6.803
			C16.237,46.119,11.978,47.955,7.682,47.955z"/>
		<path fill="#FFFFFF" d="M30.255,39.099v8.459h-4.842v-8.459c-2.839-3.852-5.206-7.919-7.609-12.634h5.425
			c1.42,2.987,2.985,6.155,4.806,8.855c1.675-2.7,3.24-6.083,4.405-8.855h5.279C35.389,31.18,33.059,35.211,30.255,39.099z"/>
		<path fill="#FFFFFF" d="M63.352,47.558c-0.073-5.615-0.546-11.267-1.092-16.414l-5.68,16.414h-4.77l-5.643-16.45
			c-0.473,5.183-1.02,10.907-1.056,16.45h-4.405c0.073-7.091,0.801-14.038,1.748-21.093h6.735l5.17,15.046l5.388-15.046h6.844
			c0.837,7.163,1.566,14.182,1.639,21.093H63.352z"/>
		<path fill="#FFFFFF" d="M96.812,47.558c-0.072-5.615-0.546-11.267-1.092-16.414l-5.68,16.414h-4.77l-5.643-16.45
			c-0.473,5.183-1.02,10.907-1.056,16.45h-4.405c0.073-7.091,0.801-14.038,1.748-21.093h6.735l5.17,15.046l5.389-15.046h6.844
			c0.838,7.163,1.566,14.182,1.639,21.093H96.812z"/>
		<path fill="#FFFFFF" d="M108.064,47.558V26.465h12.889v3.6h-8.119v4.895h6.918v3.492h-6.918v5.471h8.229v3.636H108.064z"/>
		<path fill="#FFFFFF" d="M135.008,30.209v17.35h-4.843v-17.35h-5.861v-3.744h16.602v3.744H135.008z"/>
		<path fill="#FFFFFF" d="M156.125,47.558l-4.405-8.566h-2.075v8.566h-4.77V26.465h7.791c4.77,0,7.755,2.016,7.755,5.975
			c0,2.844-1.565,4.715-3.932,5.688l5.315,9.431H156.125z M151.901,29.92h-2.257v5.651h2.147c2.549,0,3.568-1.296,3.568-2.844
			C155.36,31.216,154.486,29.92,151.901,29.92z"/>
		<path fill="#FFFFFF" d="M175.35,39.099v8.459h-4.842v-8.459c-2.84-3.852-5.206-7.919-7.609-12.634h5.425
			c1.42,2.987,2.985,6.155,4.806,8.855c1.675-2.7,3.24-6.083,4.405-8.855h5.279C180.483,31.18,178.153,35.211,175.35,39.099z"/>
	</g>
</g>
<g id="who_we_are_____what_we_do_____get_in_touch_1_">
</g>
<path opacity="0.25" fill="#FFFFFF" enable-background="new    " d="M71.644,1.98c12.862,0,24.044,7.685,29.63,18.913
	c0.626-0.177,1.265-0.315,1.918-0.406C97.378,8.35,85.425,0,71.644,0C57.65,0,45.532,8.606,39.823,21.049
	c0.606,0.197,1.194,0.44,1.768,0.712C47.023,10.061,58.452,1.98,71.644,1.98z"/>
<path opacity="0.25" fill="#FFFFFF" enable-background="new    " d="M101.689,52.51C96.255,64.201,84.83,72.274,71.644,72.274
	c-13.489,0-25.129-8.451-30.405-20.578c-0.579,0.256-1.178,0.465-1.789,0.646c5.537,12.904,17.88,21.913,32.193,21.913
	c14.118,0,26.322-8.763,31.966-21.385C102.956,52.798,102.318,52.667,101.689,52.51z"/>
</svg>
